<?xml version="1.0" encoding="UTF-8"?>
<svg width="313px" height="313px" viewBox="0 0 313 313" version="1.1" xmlns="http://www.w3.org/2000/svg" xmlns:xlink="http://www.w3.org/1999/xlink">
    <!-- Generator: Sketch 39.1 (31720) - http://www.bohemiancoding.com/sketch -->
    <title>c++</title>
    <desc>Created with Sketch.</desc>
    <defs></defs>
    <g id="Page-1" stroke="none" stroke-width="1" fill="none" fill-rule="evenodd">
        <g id="c++" fill="#000000">
            <path d="M302.553,0 L10,0 C4.477,0 0,4.478 0,10 L0,302.553 C0,308.075 4.477,312.553 10,312.553 L302.553,312.553 C308.076,312.553 312.553,308.075 312.553,302.553 L312.553,10 C312.553,4.478 308.076,0 302.553,0 L302.553,0 Z M197.078,192.887 C187.597,201.183 175.486,205.752 162.976,205.752 C134.868,205.752 112,183.352 112,155.818 C112,128.348 134.868,106 162.976,106 C175.503,106 187.573,110.53 196.963,118.756 C200.837,122.148 201.226,128.039 197.833,131.912 C194.44,135.786 188.55,136.175 184.676,132.781 C178.688,127.536 170.981,124.646 162.976,124.646 C145.149,124.646 130.646,138.629 130.646,155.818 C130.646,173.069 145.149,187.104 162.976,187.104 C170.968,187.104 178.718,184.173 184.798,178.853 C188.673,175.46 194.563,175.855 197.954,179.73 C201.345,183.606 200.953,189.497 197.078,192.887 L197.078,192.887 Z" id="Shape"></path>
        </g>
    </g>
</svg>