<?xml version="1.0" encoding="UTF-8"?>
<svg width="279px" height="71px" viewBox="0 0 279 71" version="1.1" xmlns="http://www.w3.org/2000/svg" xmlns:xlink="http://www.w3.org/1999/xlink">
    <!-- Generator: Sketch 39.1 (31720) - http://www.bohemiancoding.com/sketch -->
    <title>jQuery-Logo</title>
    <desc>Created with Sketch.</desc>
    <defs>
        <polygon id="path-1" points="0.884 12.94 12.164 12.94 12.164 0.628 0.884 0.628 0.884 12.94"></polygon>
        <polygon id="path-3" points="0.06 0.184 0.06 59.132 253.08 59.132 253.08 0.184"></polygon>
        <polygon id="path-5" points="68.357 44.297 68.357 0.563 0.480247133 0.563 0.480247133 44.297 68.357 44.297"></polygon>
        <polygon id="path-7" points="123.308651 0.252 0.278724136 0.252 0.278724136 48.271544 123.308651 48.271544"></polygon>
    </defs>
    <g id="Page-1" stroke="none" stroke-width="1" fill="none" fill-rule="evenodd">
        <g id="jQuery-Logo">
            <path d="M107.212,63.236 C107.191,63.848 107.149,64.479 107.069,65.149 L109.559,60.635 L109.285,59.163 L111.785,58.781 L112.694,65.034 L113.844,61.114 C113.935,60.731 113.982,60.445 113.993,60.158 C114.002,59.871 113.975,59.565 113.875,59.144 L116.493,58.647 C116.588,59.182 116.649,59.642 116.633,60.119 C116.61,60.75 116.452,61.438 116.014,62.471 L113.906,68.132 L110.789,68.132 L110.133,63.906 L107.692,68.132 L104.67,68.132 C104.789,64.192 104.646,61.726 104.373,59.144 L106.968,58.743 C107.166,60.177 107.269,61.611 107.212,63.236" id="Fill-1" fill="#1D5E98"></path>
            <path d="M123.443,61.076 C122.235,61.726 121.787,61.975 120.693,62.644 L119.526,68.132 L116.831,68.132 L118.734,59.048 L121.119,58.647 L121.017,59.909 C121.935,59.374 122.675,58.991 123.49,58.647 L123.443,61.076" id="Fill-2" fill="#1D5E98"></path>
            <path d="M125.914,54.917 L128.7,54.536 L128.083,57.404 L125.316,57.787 L125.914,54.917 L125.914,54.917 Z M125.043,59.029 L127.83,58.647 L125.816,68.132 L123.121,68.132 L125.043,59.029 L125.043,59.029 Z" id="Fill-3" fill="#1D5E98"></path>
            <path d="M132.794,60.98 L131.81,65.626 C131.788,65.722 131.765,65.818 131.763,65.875 C131.759,66.009 131.833,66.067 132.025,66.067 C132.484,66.067 133.005,65.875 133.491,65.684 L133.96,67.558 C133.181,67.978 132.06,68.323 130.97,68.323 C129.613,68.323 128.909,67.673 128.948,66.564 C128.952,66.43 128.977,66.296 129,66.162 L130.099,60.98 L128.723,60.98 L129.18,58.819 L130.557,58.819 L131.017,56.582 L133.802,56.199 L133.252,58.819 L135.47,58.819 L134.859,60.98 L132.794,60.98" id="Fill-4" fill="#1D5E98"></path>
            <path d="M140.911,61.247 C140.922,60.922 140.643,60.712 140.146,60.712 C139.17,60.712 138.864,61.267 138.704,62.032 L138.567,62.682 C139.03,62.567 139.241,62.529 139.801,62.356 C140.536,62.146 140.891,61.802 140.911,61.247 L140.911,61.247 Z M136.004,62.146 C136.46,60.004 137.465,58.628 140.41,58.628 C142.168,58.628 143.48,59.392 143.425,60.961 C143.362,62.778 142.396,63.619 140.078,64.307 C138.937,64.651 138.918,64.651 138.108,64.862 L137.97,65.512 C137.901,65.856 137.928,66.162 138.425,66.162 C139.401,66.162 140.833,65.684 142.114,65.13 L142.563,67.042 C141.41,67.749 139.612,68.323 137.968,68.323 C136.037,68.323 135.244,67.482 135.299,65.894 C135.311,65.55 135.364,65.168 135.454,64.766 L136.004,62.146 L136.004,62.146 Z" id="Fill-5" fill="#1D5E98"></path>
            <polyline id="Fill-6" fill="#1D5E98" points="150.381 55.013 153.167 54.631 150.325 68.132 147.629 68.132 150.381 55.013"></polyline>
            <path d="M158.422,61.247 C158.434,60.922 158.155,60.712 157.658,60.712 C156.682,60.712 156.375,61.267 156.215,62.032 L156.079,62.682 C156.542,62.567 156.752,62.529 157.313,62.356 C158.047,62.146 158.403,61.802 158.422,61.247 L158.422,61.247 Z M153.516,62.146 C153.972,60.004 154.977,58.628 157.921,58.628 C159.68,58.628 160.992,59.392 160.937,60.961 C160.874,62.778 159.908,63.619 157.589,64.307 C156.449,64.651 156.43,64.651 155.62,64.862 L155.482,65.512 C155.413,65.856 155.44,66.162 155.937,66.162 C156.913,66.162 158.344,65.684 159.625,65.13 L160.075,67.042 C158.921,67.749 157.124,68.323 155.48,68.323 C153.548,68.323 152.755,67.482 152.811,65.894 C152.823,65.55 152.875,65.168 152.965,64.766 L153.516,62.146 L153.516,62.146 Z" id="Fill-7" fill="#1D5E98"></path>
            <path d="M161.16,67.711 L161.746,65.722 C162.444,65.971 163.239,66.2 164.252,66.2 C165.151,66.2 165.217,65.933 165.309,65.493 C165.4,65.072 165.14,64.843 164.108,64.288 C162.195,63.255 162.142,62.567 162.44,61.171 C162.873,59.163 163.485,58.628 166.066,58.628 C166.945,58.628 168.066,58.819 168.823,59.067 L168.311,61.095 C167.629,60.903 166.623,60.75 165.972,60.75 C165.169,60.75 165.05,60.846 164.937,61.343 C164.846,61.783 164.938,61.879 165.82,62.356 C167.921,63.504 168.233,63.906 167.914,65.378 C167.458,67.482 166.817,68.323 164.025,68.323 C163.165,68.323 161.969,68.074 161.16,67.711" id="Fill-8" fill="#1D5E98"></path>
            <g id="Group-12" transform="translate(168.000000, 58.000000)">
                <mask id="mask-2" fill="white">
                    <use xlink:href="#path-1"></use>
                </mask>
                <g id="Clip-10"></g>
                <path d="M0.884,9.711 L1.47,7.722 C2.168,7.971 2.963,8.2 3.977,8.2 C4.875,8.2 4.942,7.933 5.034,7.493 C5.125,7.072 4.865,6.843 3.833,6.288 C1.919,5.255 1.867,4.567 2.165,3.171 C2.597,1.163 3.209,0.628 5.791,0.628 C6.669,0.628 7.791,0.819 8.547,1.067 L8.036,3.095 C7.354,2.903 6.347,2.75 5.697,2.75 C4.894,2.75 4.775,2.846 4.662,3.343 C4.571,3.783 4.663,3.879 5.544,4.356 C7.646,5.504 7.958,5.906 7.638,7.378 C7.182,9.482 6.542,10.323 3.75,10.323 C2.889,10.323 1.694,10.074 0.884,9.711" id="Fill-9" fill="#1D5E98" mask="url(#mask-2)"></path>
                <polyline id="Fill-11" fill="#1D5E98" mask="url(#mask-2)" points="8.271 12.216 9.817 10.132 8.803 10.132 9.468 6.958 12.164 6.958 11.434 10.361 9.218 13 8.271 12.216"></polyline>
            </g>
            <path d="M188.544,65.34 C188.431,65.837 188.557,66.067 189.035,66.067 C189.991,66.067 190.696,65.569 191.228,65.11 L192.099,60.961 C191.795,60.903 191.433,60.884 191.051,60.884 C189.655,60.884 189.342,61.63 189.139,62.529 L188.544,65.34 L188.544,65.34 Z M191.008,68.132 L190.959,67.329 C190.271,67.883 189.3,68.323 187.961,68.323 C185.935,68.323 185.481,67.099 185.917,65.015 L186.444,62.51 C186.904,60.292 187.536,58.628 191.455,58.628 C191.742,58.628 192.333,58.666 192.58,58.724 L193.359,55.013 L196.125,54.631 L193.284,68.132 L191.008,68.132 L191.008,68.132 Z" id="Fill-13" fill="#1D5E98"></path>
            <path d="M202.121,61.936 C202.145,61.247 201.738,60.884 200.858,60.884 C199.844,60.884 199.233,61.4 199.049,62.318 L198.567,64.632 C198.542,64.766 198.519,64.9 198.515,65.015 C198.492,65.684 198.899,66.067 199.779,66.067 C200.811,66.067 201.402,65.55 201.587,64.632 L202.07,62.318 C202.093,62.185 202.117,62.051 202.121,61.936 L202.121,61.936 Z M195.792,65.206 C195.8,64.996 195.828,64.766 195.874,64.556 L196.332,62.395 C196.834,60.004 198.05,58.628 201.3,58.628 C203.805,58.628 204.882,60.062 204.825,61.726 C204.817,61.936 204.79,62.166 204.744,62.395 L204.287,64.556 C203.806,66.793 202.682,68.323 199.298,68.323 C196.927,68.323 195.734,66.908 195.792,65.206 L195.792,65.206 Z" id="Fill-14" fill="#1D5E98"></path>
            <path d="M221.283,61.802 C221.306,61.687 221.329,61.592 221.331,61.515 C221.337,61.324 221.245,61.247 220.977,61.247 C220.48,61.247 219.296,61.745 218.518,62.146 L217.257,68.132 L214.581,68.132 L215.911,61.802 C215.933,61.687 215.957,61.592 215.958,61.515 C215.965,61.324 215.873,61.247 215.605,61.247 C215.108,61.247 213.905,61.745 213.165,62.127 L211.904,68.132 L209.208,68.132 L211.113,59.048 L213.497,58.647 L213.442,59.679 C214.919,58.991 216.079,58.628 217.15,58.628 C218.067,58.628 218.531,59.029 218.717,59.718 C220.161,58.895 221.452,58.628 222.522,58.628 C223.765,58.628 224.199,59.335 224.158,60.521 C224.146,60.846 224.114,61.209 224.025,61.592 L222.649,68.132 L219.953,68.132 L221.283,61.802" id="Fill-15" fill="#1D5E98"></path>
            <path d="M231.39,61.936 C231.415,61.247 231.007,60.884 230.127,60.884 C229.114,60.884 228.502,61.4 228.319,62.318 L227.836,64.632 C227.812,64.766 227.789,64.9 227.785,65.015 C227.761,65.684 228.168,66.067 229.048,66.067 C230.081,66.067 230.671,65.55 230.857,64.632 L231.339,62.318 C231.363,62.185 231.386,62.051 231.39,61.936 L231.39,61.936 Z M225.062,65.206 C225.07,64.996 225.097,64.766 225.143,64.556 L225.601,62.395 C226.104,60.004 227.32,58.628 230.57,58.628 C233.075,58.628 234.152,60.062 234.094,61.726 C234.086,61.936 234.059,62.166 234.013,62.395 L233.556,64.556 C233.076,66.793 231.952,68.323 228.568,68.323 C226.197,68.323 225.003,66.908 225.062,65.206 L225.062,65.206 Z" id="Fill-16" fill="#1D5E98"></path>
            <path d="M241.248,61.076 C240.04,61.726 239.591,61.975 238.498,62.644 L237.331,68.132 L234.635,68.132 L236.54,59.048 L238.923,58.647 L238.822,59.909 C239.74,59.374 240.48,58.991 241.294,58.647 L241.248,61.076" id="Fill-17" fill="#1D5E98"></path>
            <path d="M246.767,61.247 C246.779,60.922 246.5,60.712 246.002,60.712 C245.027,60.712 244.72,61.267 244.56,62.032 L244.423,62.682 C244.886,62.567 245.097,62.529 245.658,62.356 C246.392,62.146 246.748,61.802 246.767,61.247 L246.767,61.247 Z M241.861,62.146 C242.317,60.004 243.322,58.628 246.266,58.628 C248.025,58.628 249.336,59.392 249.282,60.961 C249.218,62.778 248.252,63.619 245.933,64.307 C244.793,64.651 244.775,64.651 243.964,64.862 L243.827,65.512 C243.757,65.856 243.785,66.162 244.282,66.162 C245.257,66.162 246.689,65.684 247.97,65.13 L248.419,67.042 C247.266,67.749 245.468,68.323 243.825,68.323 C241.893,68.323 241.1,67.482 241.156,65.894 C241.167,65.55 241.22,65.168 241.31,64.766 L241.861,62.146 L241.861,62.146 Z" id="Fill-18" fill="#1D5E98"></path>
            <g id="Group-22" transform="translate(0.000000, 9.000000)">
                <mask id="mask-4" fill="white">
                    <use xlink:href="#path-3"></use>
                </mask>
                <g id="Clip-20"></g>
                <polyline id="Fill-19" fill="#1D5E98" mask="url(#mask-4)" points="250.384 55.958 253.08 55.958 252.415 59.132 249.719 59.132 250.384 55.958"></polyline>
                <path d="M3.27,4.695 C-1.287,11.242 -0.724,19.759 2.763,26.716 C2.841,26.886 2.931,27.047 3.016,27.211 C3.065,27.317 3.121,27.424 3.181,27.528 C3.207,27.586 3.248,27.649 3.281,27.706 C3.337,27.819 3.397,27.924 3.457,28.032 C3.569,28.221 3.681,28.413 3.792,28.6 C3.856,28.704 3.916,28.809 3.987,28.913 C4.106,29.115 4.244,29.314 4.368,29.516 C4.423,29.602 4.476,29.686 4.536,29.77 C4.714,30.042 4.894,30.311 5.092,30.576 C5.092,30.584 5.099,30.591 5.106,30.594 C5.136,30.639 5.17,30.682 5.2,30.723 C5.368,30.953 5.536,31.177 5.711,31.399 C5.771,31.481 5.838,31.563 5.898,31.643 C6.058,31.837 6.215,32.031 6.372,32.224 C6.432,32.292 6.491,32.366 6.555,32.437 C6.764,32.688 6.984,32.938 7.208,33.185 C7.208,33.188 7.215,33.194 7.219,33.2 C7.227,33.209 7.234,33.218 7.249,33.228 C7.465,33.465 7.686,33.698 7.91,33.929 C7.98,34 8.051,34.069 8.13,34.144 C8.301,34.318 8.473,34.493 8.656,34.665 C8.731,34.736 8.805,34.805 8.876,34.874 C9.115,35.098 9.354,35.322 9.604,35.536 C9.608,35.54 9.612,35.542 9.615,35.545 C9.656,35.581 9.701,35.617 9.739,35.652 C9.958,35.84 10.179,36.027 10.403,36.212 C10.493,36.287 10.582,36.357 10.672,36.43 C10.858,36.578 11.045,36.719 11.231,36.861 C11.329,36.934 11.426,37.009 11.526,37.085 C11.728,37.236 11.937,37.384 12.142,37.529 C12.217,37.584 12.291,37.638 12.37,37.688 C12.389,37.704 12.411,37.72 12.43,37.735 C12.635,37.869 12.829,38 13.031,38.132 C13.12,38.19 13.206,38.246 13.292,38.304 C13.605,38.503 13.919,38.696 14.229,38.882 C14.318,38.929 14.408,38.98 14.494,39.03 C14.725,39.164 14.96,39.297 15.199,39.424 C15.33,39.497 15.46,39.56 15.595,39.627 C15.755,39.715 15.923,39.804 16.095,39.892 C16.136,39.909 16.177,39.924 16.214,39.944 C16.285,39.976 16.353,40.012 16.419,40.045 C16.681,40.174 16.95,40.295 17.226,40.418 C17.278,40.443 17.334,40.465 17.39,40.493 C17.7,40.627 18.01,40.756 18.327,40.881 C18.402,40.909 18.476,40.943 18.555,40.969 C18.842,41.081 19.141,41.191 19.436,41.297 C19.473,41.313 19.506,41.324 19.544,41.336 C19.872,41.449 20.197,41.555 20.529,41.658 C20.607,41.68 20.686,41.708 20.768,41.729 C21.108,41.831 21.436,41.951 21.783,42.016 C43.816,46.032 50.217,28.775 50.217,28.775 C44.839,35.775 35.295,37.625 26.255,35.568 C25.919,35.492 25.587,35.385 25.247,35.284 C25.168,35.262 25.079,35.236 25,35.208 C24.672,35.109 24.348,35.002 24.03,34.894 C23.985,34.879 23.937,34.863 23.892,34.844 C23.605,34.745 23.321,34.637 23.038,34.527 C22.959,34.493 22.877,34.465 22.798,34.435 C22.485,34.312 22.175,34.18 21.873,34.047 C21.806,34.023 21.749,33.995 21.686,33.969 C21.421,33.847 21.167,33.728 20.91,33.604 C20.831,33.571 20.761,33.534 20.682,33.495 C20.48,33.399 20.279,33.293 20.081,33.188 C19.943,33.118 19.809,33.052 19.678,32.98 C19.436,32.849 19.193,32.711 18.95,32.577 C18.875,32.526 18.793,32.483 18.707,32.437 C18.394,32.25 18.077,32.058 17.767,31.86 C17.678,31.804 17.595,31.747 17.513,31.69 C17.286,31.546 17.062,31.395 16.841,31.246 C16.77,31.195 16.7,31.143 16.625,31.091 C16.412,30.941 16.203,30.791 15.991,30.635 C15.901,30.564 15.808,30.494 15.71,30.423 C15.52,30.275 15.33,30.13 15.14,29.977 C15.057,29.908 14.972,29.84 14.889,29.773 C14.643,29.576 14.412,29.377 14.176,29.172 C14.154,29.148 14.121,29.127 14.094,29.107 C13.844,28.883 13.594,28.654 13.348,28.426 C13.273,28.355 13.21,28.29 13.135,28.222 C12.956,28.047 12.777,27.875 12.602,27.698 C12.527,27.624 12.459,27.554 12.389,27.483 C12.165,27.257 11.944,27.024 11.728,26.786 C11.717,26.776 11.706,26.765 11.694,26.752 C11.467,26.502 11.247,26.248 11.026,25.99 C10.966,25.921 10.911,25.85 10.851,25.783 C10.69,25.585 10.53,25.386 10.366,25.188 C10.313,25.111 10.253,25.039 10.194,24.964 C10.003,24.719 9.821,24.475 9.638,24.223 C4.621,17.379 2.811,7.935 6.824,0.184" id="Fill-21" fill="#1D5E98" mask="url(#mask-4)"></path>
            </g>
            <path d="M17.416,8.176 C14.113,12.917 14.296,19.264 16.868,24.28 C17.293,25.12 17.778,25.936 18.323,26.71 C18.816,27.419 19.361,28.259 20.021,28.828 C20.253,29.089 20.503,29.343 20.761,29.599 C20.824,29.662 20.888,29.724 20.955,29.791 C21.201,30.028 21.451,30.261 21.708,30.489 C21.716,30.499 21.731,30.508 21.739,30.517 C21.742,30.519 21.746,30.522 21.746,30.522 C22.033,30.776 22.325,31.017 22.627,31.252 C22.698,31.303 22.761,31.359 22.832,31.409 C23.131,31.643 23.437,31.866 23.747,32.086 C23.758,32.09 23.765,32.098 23.78,32.104 C23.915,32.2 24.056,32.29 24.202,32.383 C24.265,32.424 24.332,32.473 24.396,32.512 C24.623,32.66 24.848,32.797 25.079,32.934 C25.113,32.951 25.146,32.969 25.18,32.986 C25.374,33.104 25.579,33.219 25.785,33.324 C25.855,33.367 25.926,33.4 25.997,33.439 C26.139,33.51 26.281,33.585 26.419,33.658 C26.437,33.667 26.464,33.678 26.486,33.688 C26.777,33.832 27.072,33.964 27.363,34.097 C27.434,34.125 27.494,34.149 27.561,34.177 C27.8,34.279 28.042,34.38 28.282,34.472 C28.39,34.507 28.491,34.55 28.591,34.585 C28.811,34.664 29.036,34.74 29.256,34.813 C29.364,34.849 29.461,34.878 29.558,34.91 C29.872,35.009 30.189,35.136 30.521,35.188 C47.526,38.008 51.46,24.909 51.46,24.909 C47.918,30.011 41.062,32.441 33.746,30.542 C33.417,30.458 33.097,30.364 32.783,30.261 C32.682,30.235 32.593,30.204 32.496,30.17 C32.268,30.097 32.04,30.021 31.82,29.938 C31.719,29.901 31.615,29.864 31.514,29.825 C31.271,29.729 31.029,29.636 30.793,29.532 C30.723,29.503 30.655,29.479 30.6,29.45 C30.297,29.319 29.998,29.179 29.707,29.039 C29.558,28.962 29.413,28.888 29.263,28.81 C29.174,28.765 29.088,28.722 29.009,28.681 C28.811,28.578 28.628,28.47 28.442,28.36 C28.397,28.335 28.352,28.313 28.308,28.287 C28.08,28.149 27.845,28.011 27.628,27.867 C27.554,27.824 27.49,27.775 27.419,27.731 C27.27,27.636 27.124,27.541 26.971,27.438 C26.662,27.223 26.359,26.996 26.057,26.768 C25.986,26.71 25.919,26.658 25.852,26.602 C22.642,24.075 20.103,20.619 18.902,16.705 C17.633,12.64 17.913,8.077 20.1,4.376" id="Fill-23" fill="#1D5E98"></path>
            <path d="M29.308,4.054 C27.36,6.913 27.173,10.464 28.517,13.618 C29.942,16.97 32.857,19.6 36.254,20.844 C36.392,20.898 36.53,20.943 36.672,20.992 C36.736,21.01 36.795,21.031 36.863,21.051 C37.061,21.113 37.258,21.188 37.463,21.227 C46.858,23.041 49.404,16.406 50.087,15.43 C47.851,18.644 44.1,19.414 39.498,18.297 C39.136,18.209 38.74,18.079 38.389,17.952 C37.941,17.793 37.497,17.608 37.064,17.405 C36.254,17.011 35.47,16.537 34.746,15.988 C30.625,12.864 28.073,6.905 30.76,2.051" id="Fill-24" fill="#1D5E98"></path>
            <path d="M246.995,17.447 L247.364,19.003 C247.468,19.449 247.185,19.81 246.729,19.81" id="Fill-25" fill="#2D2E2C"></path>
            <path d="M217.358,14.774 C217.265,15.206 217.153,15.75 217.079,16.111 L213.828,31.326 L217.247,15.297 L217.358,14.774" id="Fill-26" fill="#2D2E2C"></path>
            <polyline id="Fill-27" fill="#2D2E2C" points="119.963 24.957 118.167 31.315 119.963 24.958 119.963 24.957"></polyline>
            <g id="Group-31" transform="translate(210.000000, 4.000000)">
                <mask id="mask-6" fill="white">
                    <use xlink:href="#path-5"></use>
                </mask>
                <g id="Clip-29"></g>
                <path d="M37.364,15.003 L36.427,11.042 C35.688,8.175 33.594,6.82 28.888,6.82 L9.094,6.82 C8.638,6.82 8.183,7.025 8.09,7.471 L0.581,43.085 C0.483,43.536 0.454,43.856 0.505,44.079 C0.558,44.308 1.439,44.265 1.89,44.265 L8.747,44.265 C9.206,44.265 10.039,44.299 10.281,44.202 C10.535,44.097 10.647,43.418 10.74,42.969 L13.163,30.482 L16.123,16.631 C16.219,16.187 16.667,15.823 17.123,15.823 L36.729,15.81 C37.181,15.81 37.468,15.448 37.364,15.003" id="Fill-28" fill="#2D2E2C" mask="url(#mask-6)"></path>
                <path d="M65.255,0.566 C64.796,0.571 56.56,0.566 56.56,0.566 C56.105,0.566 55.519,1.055 55.265,1.432 L40.002,23.887 C39.742,24.264 39.447,24.25 39.346,23.807 L38.218,18.885 C38.122,18.439 37.667,18.075 37.204,18.075 L27.394,18.075 C26.943,18.075 26.67,18.452 26.79,18.893 L31.187,34.309 C31.314,34.75 31.325,35.471 31.212,35.913 L29.162,43.721 C29.053,44.163 29.333,44.297 29.796,44.297 L39.482,44.297 C39.937,44.297 40.408,44.166 40.519,43.721 L42.571,35.803 C42.683,35.362 43,34.761 43.272,34.393 L68.181,1.359 C68.461,0.997 68.421,0.563 67.966,0.563 L65.255,0.566" id="Fill-30" fill="#2D2E2C" mask="url(#mask-6)"></path>
            </g>
            <path d="M173.121,10.85 L164.267,10.85 C163.816,10.85 163.353,11.009 163.263,11.457 L160.337,25.148 L157.422,38.258 C157.329,38.703 156.877,38.672 156.421,38.672 L150.603,38.672 C144.847,38.672 145.511,35.036 146.695,29.584 C146.709,29.53 150.386,11.457 150.386,11.457 C150.468,11.011 150.169,10.85 149.718,10.85 L141.283,10.85 C140.828,10.85 140.375,11.011 140.287,11.457 L136.893,29.571 C135.201,39.366 135.15,47.984 146.508,48.268 C146.695,48.275 164.443,48.268 164.443,48.268 C164.902,48.268 165.353,48.118 165.451,47.676 L169.302,29.51 L173.139,11.268 C173.139,11.268 173.275,10.85 173.121,10.85" id="Fill-32" fill="#2D2E2C"></path>
            <path d="M84.937,10.82 L75.445,10.82 C74.99,10.82 74.531,10.928 74.43,11.376 L72.717,18.787 C72.62,19.226 72.911,19.576 73.37,19.576 L82.458,19.576 C82.918,19.576 83.373,19.162 83.47,18.72 L85.12,11.253 C85.12,11.253 85.251,10.82 84.937,10.82" id="Fill-33" fill="#2D2E2C"></path>
            <path d="M72.754,22.075 C72.303,22.075 71.84,22.436 71.743,22.881 L70.462,28.534 L67.607,41.588 C67.607,41.588 66.088,48.528 65.942,48.962 C65.942,48.962 64.663,53.973 61.607,53.772 C60.185,53.678 58.56,53.352 58.56,53.352 L58.556,53.352 C57.701,53.094 57.641,53.981 57.537,54.424 L55.652,62.557 C55.543,63.002 55.835,63.403 56.287,63.409 C56.287,63.409 60.373,63.985 63.259,63.985 L63.733,63.985 C70.862,63.985 74.628,59.793 77.035,48.412 L79.857,35.238 L82.503,22.98 C82.601,22.534 82.331,22.12 81.876,22.12" id="Fill-34" fill="#2D2E2C"></path>
            <g id="Group-38" transform="translate(86.000000, 0.000000)">
                <mask id="mask-8" fill="white">
                    <use xlink:href="#path-7"></use>
                </mask>
                <g id="Clip-36"></g>
                <path d="M113.732,26.434 C113.732,26.929 112.169,26.834 112.169,26.834 L99.722,26.744 C99.292,26.744 99.169,26.141 99.139,25.71 C99.138,25.695 99.17,25.193 99.207,25.068 C100.169,21.731 103.04,19.824 107.59,19.824 C112.71,19.824 113.804,22.364 113.804,25.18 M109.523,10.765 C93.556,10.765 89.745,20.634 87.625,30.415 C85.504,40.388 85.685,48.271 102.206,48.271 L102.802,48.271 L117.32,48.271 C117.767,48.263 118.215,47.853 118.305,47.411 L119.929,41.084 C120.023,40.636 119.72,40.504 119.269,40.504 L104.41,40.504 C99.028,40.504 97.101,38.846 97.289,35.124 C97.285,34.7 97.77,33.621 98.225,33.621 L121.113,33.621 C122.118,33.616 122.15,33.028 122.15,33.028 C124.48,22.512 124.632,10.765 109.523,10.765" id="Fill-35" fill="#2D2E2C" mask="url(#mask-8)"></path>
                <path d="M32.082,31.315 L30.242,37.604 C30.115,38.045 29.596,38.339 29.14,38.339 L19.648,38.339 C12.445,38.339 10.694,32.772 12.445,24.466 C14.203,15.975 17.686,10.721 24.77,10.189 C34.456,9.459 36.438,16.299 34.09,24.162 L32.082,31.315 L32.082,31.315 Z M40.517,37.979 C40.517,37.979 44.989,27.116 46.003,20.838 C47.392,12.436 43.189,0.251 26.938,0.251 C10.784,0.251 3.774,11.884 1.091,24.531 C-1.582,37.27 1.917,48.361 17.982,48.271 L42.502,48.256 C42.954,48.254 43.425,47.889 43.541,47.454 L45.608,39.583 C45.72,39.138 45.44,38.778 44.981,38.776 L43.006,38.761 L41.032,38.752 C40.644,38.749 40.42,38.496 40.472,38.163 C40.479,38.102 40.487,38.042 40.517,37.979 L40.517,37.979 Z" id="Fill-37" fill="#2D2E2C" mask="url(#mask-8)"></path>
            </g>
        </g>
    </g>
</svg>