<?xml version="1.0" encoding="UTF-8"?>
<svg width="458px" height="146px" viewBox="0 0 458 146" version="1.1" xmlns="http://www.w3.org/2000/svg" xmlns:xlink="http://www.w3.org/1999/xlink">
    <!-- Generator: Sketch 39.1 (31720) - http://www.bohemiancoding.com/sketch -->
    <title>redis</title>
    <desc>Created with Sketch.</desc>
    <defs></defs>
    <g id="Page-1" stroke="none" stroke-width="1" fill="none" fill-rule="evenodd">
        <g id="redis">
            <g id="Group">
                <g transform="translate(210.000000, 12.000000)" id="Shape" fill="#636466">
                    <path d="M40.641,33.268 C40.641,36.887 37.668,40.117 33.791,40.117 C30.818,40.117 28.234,40.893 26.037,42.573 C23.582,44.125 21.643,46.321 20.093,48.776 C16.991,52.912 15.442,57.822 14.795,59.63 L14.795,84.184 C14.795,87.932 11.565,91.034 7.688,91.034 C3.94,91.034 0.839,87.932 0.839,84.184 L0.839,33.268 C0.839,29.52 3.94,26.548 7.688,26.548 C11.565,26.548 14.795,29.521 14.795,33.268 L14.795,34.173 C15.57,33.268 16.604,32.235 17.509,31.588 C21.774,28.746 27.33,26.419 33.791,26.548 C37.668,26.548 40.641,29.521 40.641,33.268 L40.641,33.268 Z"></path>
                    <path d="M36.846,58.726 C36.976,41.151 50.674,26.419 68.377,26.419 C85.177,26.419 98.487,38.954 99.522,56.399 L99.522,57.045 C99.522,57.304 99.522,57.949 99.393,58.208 C99.004,61.31 96.291,63.378 92.672,63.378 L51.578,63.378 C52.224,66.351 53.645,69.71 55.972,71.907 C58.686,75.009 63.855,77.333 68.377,77.721 C73.029,78.108 78.586,76.946 81.817,74.491 C84.53,71.647 89.829,72.036 91.509,74.102 C93.189,75.913 94.481,79.79 91.509,82.502 C85.176,88.316 77.552,91.031 68.376,91.031 C50.674,90.904 36.976,76.301 36.846,58.726 L36.846,58.726 Z M50.932,52.394 L87.503,52.394 C86.211,47.225 79.62,39.601 68.377,38.696 C57.394,39.212 51.966,47.096 50.932,52.394 L50.932,52.394 Z"></path>
                    <path d="M165.363,84.055 C165.363,87.803 162.261,91.034 158.384,91.034 C154.895,91.034 152.182,88.579 151.535,85.477 C146.625,88.836 140.422,91.034 133.96,91.034 C116.515,91.034 102.558,76.302 102.558,58.856 C102.558,41.151 116.515,26.419 133.96,26.419 C140.293,26.419 146.495,28.486 151.276,31.846 L151.276,7.552 C151.276,3.804 154.378,0.573 158.383,0.573 C162.26,0.573 165.362,3.804 165.362,7.552 L165.362,58.726 C165.362,58.726 165.362,58.726 165.362,58.856 L165.362,84.055 L165.363,84.055 Z M133.961,40.505 C129.309,40.505 125.044,42.443 121.815,45.803 C118.584,49.034 116.645,53.685 116.645,58.855 C116.645,63.765 118.583,68.417 121.815,71.648 C125.044,75.009 129.309,76.947 133.961,76.947 C138.742,76.947 142.878,75.009 146.108,71.648 C149.338,68.418 151.277,63.765 151.277,58.855 C151.277,53.685 149.339,49.034 146.108,45.803 C142.878,42.443 138.742,40.505 133.961,40.505 L133.961,40.505 Z"></path>
                    <path d="M189.949,10.266 C189.949,14.143 186.977,17.373 182.97,17.373 C179.093,17.373 175.992,14.143 175.992,10.266 L175.992,7.552 C175.992,3.675 179.093,0.573 182.97,0.573 C186.977,0.573 189.949,3.675 189.949,7.552 L189.949,10.266 L189.949,10.266 Z M189.949,33.656 L189.949,84.055 C189.949,87.932 186.977,91.034 182.97,91.034 C179.093,91.034 175.992,87.932 175.992,84.055 L175.992,33.656 C175.992,29.521 179.093,26.548 182.97,26.548 C186.978,26.548 189.949,29.521 189.949,33.656 L189.949,33.656 Z"></path>
                    <path d="M198.833,72.553 C201.159,69.453 205.683,69.065 208.525,71.52 C211.885,74.364 217.701,77.334 222.74,77.206 C226.229,77.206 229.46,76.044 231.528,74.751 C233.337,73.2 233.853,71.909 233.853,70.874 C233.853,70.228 233.724,69.97 233.466,69.581 C233.336,69.194 232.82,68.677 231.785,68.032 C229.976,66.739 226.099,65.317 221.447,64.413 L221.318,64.413 C217.311,63.638 213.434,62.604 210.075,61.052 C206.586,59.373 203.484,57.047 201.158,53.558 C199.737,51.232 198.962,48.389 198.962,45.417 C198.962,39.472 202.322,34.432 206.586,31.201 C211.109,28.1 216.537,26.42 222.482,26.42 C231.398,26.42 237.73,30.685 241.866,33.527 C244.968,35.595 245.872,39.86 243.933,43.089 C241.866,46.191 237.601,47.096 234.371,44.899 C230.236,42.186 226.617,40.117 222.482,40.117 C219.251,40.117 216.408,41.151 214.728,42.443 C213.048,43.607 212.661,44.77 212.661,45.416 C212.661,45.932 212.661,46.062 212.919,46.449 C213.049,46.707 213.436,47.224 214.341,47.741 C216.022,48.904 219.381,50.067 223.775,50.843 L223.904,50.973 L224.034,50.973 C228.299,51.747 232.305,52.911 236.052,54.72 C239.541,56.271 243.031,58.726 245.228,62.344 C246.779,64.928 247.683,67.901 247.683,70.873 C247.683,77.205 244.194,82.504 239.541,85.863 C234.889,89.093 229.073,91.033 222.741,91.033 C212.662,90.904 204.908,86.252 199.739,82.117 C196.895,79.791 196.508,75.396 198.833,72.553 L198.833,72.553 Z"></path>
                </g>
                <g>
                    <path d="M163.774,112.535 C154.696,117.267 107.668,136.603 97.656,141.822 C87.644,147.043 82.082,146.992 74.173,143.211 C66.264,139.43 16.218,119.215 7.203,114.906 C2.697,112.752 0.328,110.935 0.328,109.218 L0.328,92.023 C0.328,92.023 65.481,77.839 76,74.066 C86.518,70.292 90.167,70.156 99.118,73.435 C108.07,76.714 161.592,86.371 170.439,89.611 C170.439,89.611 170.435,104.968 170.435,106.562 C170.436,108.262 168.395,110.127 163.774,112.535 L163.774,112.535 Z" id="Shape" fill="#A41E11"></path>
                    <path d="M163.774,95.336 C154.696,100.066 107.668,119.404 97.656,124.623 C87.644,129.844 82.082,129.793 74.173,126.012 C66.263,122.233 16.218,102.014 7.203,97.707 C-1.812,93.398 -2.001,90.432 6.855,86.965 C15.71,83.496 65.481,63.969 76.001,60.195 C86.519,56.423 90.168,56.285 99.119,59.565 C108.071,62.844 154.818,81.451 163.664,84.691 C172.512,87.934 172.852,90.604 163.774,95.336 L163.774,95.336 Z" id="Shape" fill="#D82C20"></path>
                    <path d="M163.774,84.496 C154.696,89.228 107.668,108.564 97.656,113.785 C87.644,119.004 82.082,118.953 74.173,115.172 C66.263,111.393 16.218,91.176 7.203,86.867 C2.697,84.713 0.328,82.898 0.328,81.181 L0.328,63.984 C0.328,63.984 65.481,49.801 76,46.027 C86.518,42.254 90.167,42.117 99.118,45.396 C108.07,48.675 161.592,58.33 170.439,61.571 C170.439,61.571 170.435,76.928 170.435,78.524 C170.436,80.223 168.395,82.088 163.774,84.496 L163.774,84.496 Z" id="Shape" fill="#A41E11"></path>
                    <path d="M163.774,67.297 C154.696,72.029 107.668,91.365 97.656,96.586 C87.644,101.805 82.082,101.754 74.173,97.973 C66.263,94.194 16.218,73.976 7.203,69.668 C-1.812,65.36 -2.001,62.394 6.855,58.925 C15.71,55.458 65.481,35.93 76.001,32.157 C86.519,28.384 90.168,28.247 99.119,31.526 C108.071,34.805 154.818,53.411 163.664,56.652 C172.512,59.894 172.852,62.565 163.774,67.297 L163.774,67.297 Z" id="Shape" fill="#D82C20"></path>
                    <path d="M163.774,55.419 C154.696,60.151 107.668,79.488 97.656,84.709 C87.644,89.928 82.082,89.877 74.173,86.096 C66.263,82.317 16.218,62.099 7.203,57.791 C2.697,55.637 0.328,53.821 0.328,52.105 L0.328,34.908 C0.328,34.908 65.481,20.725 76,16.952 C86.518,13.178 90.167,13.042 99.118,16.321 C108.07,19.6 161.592,29.255 170.439,32.496 C170.439,32.496 170.435,47.853 170.435,49.448 C170.436,51.146 168.395,53.011 163.774,55.419 L163.774,55.419 Z" id="Shape" fill="#A41E11"></path>
                    <path d="M163.774,38.22 C154.696,42.952 107.668,62.289 97.656,67.509 C87.644,72.728 82.082,72.677 74.173,68.897 C66.264,65.117 16.218,44.9 7.203,40.592 C-1.812,36.284 -2.001,33.317 6.855,29.849 C15.71,26.381 65.481,6.855 76.001,3.081 C86.519,-0.693 90.168,-0.829 99.119,2.451 C108.071,5.73 154.818,24.336 163.664,27.577 C172.512,30.817 172.852,33.489 163.774,38.22 L163.774,38.22 Z" id="Shape" fill="#D82C20"></path>
                    <polygon id="Shape" fill="#FFFFFF" points="88.055 13.78 99.272 10.111 96.236 17.379 107.667 21.657 92.933 23.186 89.631 31.13 84.296 22.269 67.277 20.74 79.978 16.157 76.168 9.128"></polygon>
                    <polygon id="Shape" fill="#FFFFFF" points="88.753 60.181 61.236 48.771 100.656 42.72"></polygon>
                    <ellipse id="Oval" fill="#FFFFFF" cx="50.612" cy="34.241" rx="21.069" ry="8.167"></ellipse>
                </g>
                <polygon id="Shape" fill="#7A0C00" points="125.094 23.826 148.421 33.053 125.107 42.257"></polygon>
                <polygon id="Shape" fill="#AD2115" points="125.094 23.826 125.107 42.257 122.582 43.253 99.281 34.036"></polygon>
            </g>
        </g>
    </g>
</svg>